<?xml version="1.0" standalone="no"?><!DOCTYPE svg PUBLIC "-//W3C//DTD SVG 1.1//EN" "http://www.w3.org/Graphics/SVG/1.1/DTD/svg11.dtd"><svg class="icon" width="200px" height="200.00px" viewBox="0 0 1024 1024" version="1.1" xmlns="http://www.w3.org/2000/svg"><path fill="#fff" d="M512 981.357714A469.284571 469.284571 0 1 1 512 42.715429a469.284571 469.284571 0 0 1 0 938.642285zM512 128a384 384 0 1 0 0 768 384 384 0 0 0 0-768zM375.076571 329.362286a24.356571 24.356571 0 0 1 21.723429 0l298.642286 166.4a17.042286 17.042286 0 0 1 0 31.158857L396.8 693.394286a24.283429 24.283429 0 0 1-21.723429 0 18.285714 18.285714 0 0 1-11.117714-16.164572V345.526857a18.285714 18.285714 0 0 1 11.117714-16.237714z" /></svg>