<?xml version="1.0" standalone="no"?><!DOCTYPE svg PUBLIC "-//W3C//DTD SVG 1.1//EN" "http://www.w3.org/Graphics/SVG/1.1/DTD/svg11.dtd"><svg class="icon" width="200px" height="200.00px" viewBox="0 0 1024 1024" version="1.1" xmlns="http://www.w3.org/2000/svg"><path fill="#fff" d="M122.8288 122.8288a128 128 0 0 1 90.5216-37.4784h128a42.6496 42.6496 0 0 1 0 85.2992h-128a42.6496 42.6496 0 0 0-42.7008 42.7008v128a42.6496 42.6496 0 0 1-85.2992 0v-128a128 128 0 0 1 37.4784-90.5216zM640 128c0-23.552 19.0976-42.6496 42.6496-42.6496h128a128 128 0 0 1 128 128v128a42.6496 42.6496 0 0 1-85.2992 0v-128a42.6496 42.6496 0 0 0-42.7008-42.7008h-128A42.6496 42.6496 0 0 1 640 128z m-512 512c23.552 0 42.6496 19.0976 42.6496 42.6496v128a42.6496 42.6496 0 0 0 42.7008 42.7008h128a42.6496 42.6496 0 0 1 0 85.2992h-128a128 128 0 0 1-128-128v-128c0-23.552 19.0976-42.6496 42.6496-42.6496z m768 0c23.552 0 42.6496 19.0976 42.6496 42.6496v128a128 128 0 0 1-128 128h-128a42.6496 42.6496 0 0 1 0-85.2992h128a42.6496 42.6496 0 0 0 42.7008-42.7008v-128c0-23.552 19.0976-42.6496 42.6496-42.6496z"  /></svg>