<svg width="20" height="20" viewBox="0 0 20 20" fill="none" xmlns="http://www.w3.org/2000/svg">
<path fill-rule="evenodd" clip-rule="evenodd" d="M9.88544 8.10312C8.98768 8.10312 8.4541 8.83333 8.4541 10.0588C8.4541 11.2758 8.98768 12.0144 9.87697 12.0144C10.7917 12.0144 11.3591 11.2674 11.3591 10.0588C11.3591 8.85012 10.7917 8.10312 9.88544 8.10312ZM10.1652 3C14.1797 3 17 5.5012 17 9.23621C17 11.8801 15.7381 13.5839 13.6715 13.5839C12.6213 13.5839 11.8167 13.0803 11.6304 12.2662H11.5118C11.1645 13.1055 10.4531 13.5588 9.47066 13.5588C7.70901 13.5588 6.53176 12.1403 6.53176 10.0084C6.53176 7.96882 7.69207 6.57554 9.38596 6.57554C10.3007 6.57554 11.0629 7.02878 11.3932 7.76739H11.5118V6.76019H13.2311V11.2506C13.2311 11.8297 13.5021 12.199 14.0357 12.199C14.8657 12.199 15.4416 11.1499 15.4416 9.36211C15.4416 6.30695 13.3158 4.33453 10.1059 4.33453C6.84513 4.33453 4.55838 6.66787 4.55838 10.042C4.55838 13.5755 6.93829 15.6403 10.4277 15.6403C11.3339 15.6403 12.2571 15.5228 12.7399 15.3465V16.6894C12.0793 16.8825 11.2154 17 10.3007 17C6.01512 17 3 14.3393 3 10C3 5.83693 5.9389 3 10.1652 3Z" fill="#161823"/>
</svg>
