<svg width="20" height="20" viewBox="0 0 20 20" fill="none" xmlns="http://www.w3.org/2000/svg">
<path fill-rule="evenodd" clip-rule="evenodd" d="M11.9668 3.46438C11.9855 3.20272 12.2032 3 12.4656 3H12.963C13.2532 3 13.4824 3.24619 13.4617 3.53562L13.2143 7H15.5C15.7761 7 16 7.22386 16 7.5V8C16 8.27614 15.7761 8.5 15.5 8.5H13.1071L12.9286 11H15.5C15.7761 11 16 11.2239 16 11.5V12C16 12.2761 15.7761 12.5 15.5 12.5H12.8214L12.5332 16.5356C12.5145 16.7973 12.2968 17 12.0344 17H11.537C11.2468 17 11.0176 16.7538 11.0383 16.4644L11.3214 12.5H8.82143L8.53317 16.5356C8.51448 16.7973 8.29676 17 8.03444 17H7.53699C7.24682 17 7.01759 16.7538 7.03826 16.4644L7.32143 12.5H4.5C4.22386 12.5 4 12.2761 4 12V11.5C4 11.2239 4.22386 11 4.5 11H7.42857L7.60714 8.5H4.5C4.22386 8.5 4 8.27614 4 8V7.5C4 7.22386 4.22386 7 4.5 7H7.71429L7.96683 3.46438C7.98552 3.20272 8.20324 3 8.46556 3H8.96301C9.25318 3 9.48242 3.24619 9.46174 3.53562L9.21429 7H11.7143L11.9668 3.46438ZM9.10714 8.5L8.92857 11H11.4286L11.6071 8.5H9.10714Z" fill="#161823"/>
</svg>
