<?xml version="1.0" standalone="no"?><!DOCTYPE svg PUBLIC "-//W3C//DTD SVG 1.1//EN" "http://www.w3.org/Graphics/SVG/1.1/DTD/svg11.dtd"><svg class="icon" width="200px" height="200.00px" viewBox="0 0 1024 1024" version="1.1" xmlns="http://www.w3.org/2000/svg"><path fill="#fff" d="M348.2624 170.6496h20.2752c21.8624 0 32.9728 3.4816 43.1616 10.0352 10.24 6.5536 18.2272 16.1792 23.6544 28.416 5.4784 12.2368 8.3968 25.6 8.3968 51.8144v502.1696c0 26.2656-2.9184 39.5776-8.3968 51.8144a63.744 63.744 0 0 1-23.6544 28.416c-10.1888 6.5536-21.2992 10.0352-43.1616 10.0352h-20.2752c-21.8624 0-32.9728-3.4816-43.1616-10.0352a63.744 63.744 0 0 1-23.6544-28.416c-5.4784-12.2368-8.3968-25.6-8.3968-51.8144V260.9152c0-26.2656 2.9184-39.5776 8.3968-51.8144 5.4272-12.288 13.4144-21.8624 23.6544-28.416 10.1888-6.5536 21.2992-10.0352 43.1616-10.0352zM655.4624 170.6496h20.2752c21.8624 0 32.9728 3.4816 43.1616 10.0352 10.24 6.5536 18.2272 16.1792 23.7056 28.416 5.4272 12.2368 8.3456 25.6 8.3456 51.8144v502.1696c0 26.2656-2.9184 39.5776-8.3456 51.8144a63.7952 63.7952 0 0 1-23.7056 28.416c-10.1888 6.5536-21.2992 10.0352-43.1616 10.0352h-20.2752c-21.8624 0-32.9728-3.4816-43.1616-10.0352a63.7952 63.7952 0 0 1-23.6544-28.416c-5.4784-12.2368-8.3968-25.6-8.3968-51.8144V260.9152c0-26.2656 2.9184-39.5776 8.3968-51.8144 5.4272-12.288 13.4144-21.8624 23.6544-28.416 10.1888-6.5536 21.2992-10.0352 43.1616-10.0352z"  /></svg>